<?xml version="1.0" encoding="utf-8"?>
<!-- Generator: Adobe Illustrator 23.0.1, SVG Export Plug-In . SVG Version: 6.00 Build 0)  -->
<svg version="1.1" id="Слой_1" xmlns="http://www.w3.org/2000/svg" xmlns:xlink="http://www.w3.org/1999/xlink" x="0px" y="0px"
	 viewBox="0 0 475.4 190.9" style="enable-background:new 0 0 475.4 190.9;" xml:space="preserve">
<style type="text/css">
	.st0{stroke:#000000;stroke-miterlimit:10;}
</style>
<polygon class="st0" points="16.9,160.6 74.6,160.6 106.7,103.8 74.6,48.5 16.9,48.5 50.1,104.6 "/>
<rect x="304.1" y="33.9" class="st0" width="32.1" height="123.9"/>
<path class="st0" d="M398.6,56.2c0,0-59-0.1-58.9,52.1c0.1,55.9,59.8,52.3,59.8,52.3s58,3,58-55.2C457.5,54.6,398.6,56.2,398.6,56.2
	z M398.7,134c-13.8,0-25-11.4-25-25.5s11.2-25.5,25-25.5c13.8,0,25,11.4,25,25.5S412.5,134,398.7,134z"/>
<path class="st0" d="M298.3,114.1c0,0,3.2-59.5-55.3-58.4c-39.2,0.7-50.1,38.8-50.1,38.8h-21.2V68.8c0,0-1-6.8,4.8-11.6
	s20.9-3.2,20.9-3.2V33.9h-28.3c0,0-11.6,0.8-21.5,10.1c-10,9.3-8.7,23.8-8.7,23.8v27h-19v19.3l18.6-0.3l0.3,44h32.8v-43.7h19.9
	c0,0,7.4,46.5,52.1,46.5c52.1,0,52.1-33,52.1-33h-32.1c0,0-2.6,10-18.6,10c-21.5,0-21.2-23.5-21.2-23.5H298.3z M246.1,78
	c19.2-0.1,20.7,16.5,20.7,16.5h-41.4C225.4,94.4,228.8,78.1,246.1,78z"/>
</svg>
