<?xml version="1.0" encoding="utf-8"?>
<!-- Generator: Adobe Illustrator 15.0.0, SVG Export Plug-In . SVG Version: 6.00 Build 0)  -->
<!DOCTYPE svg PUBLIC "-//W3C//DTD SVG 1.1//EN" "http://www.w3.org/Graphics/SVG/1.1/DTD/svg11.dtd">
<svg version="1.1" id="Layer_1" xmlns="http://www.w3.org/2000/svg" xmlns:xlink="http://www.w3.org/1999/xlink" x="0px" y="0px"
	 width="385.665px" height="145.22px" viewBox="6.401 0 385.665 145.22" enable-background="new 6.401 0 385.665 145.22"
	 xml:space="preserve">
<path fill="#D12128" d="M392.066,72.418c0-40.132-32.537-72.196-72.67-72.196c-2.188,0-4.348-0.356-6.486-0.167H79.022
	c-0.013,0-0.025-0.001-0.039-0.001c-0.014,0-0.026,0.001-0.039,0.001h-5.299c0,0-0.868-0.108-1.875,0.125
	C34.926,3.66,6.401,34.881,6.401,72.637c0,38.192,29.504,69.472,66.959,72.345c0.182,0.047,0.286,0.073,0.286,0.073h0.68
	c1.542,0.098,3.091,0.165,4.657,0.165s3.116-0.067,4.657-0.165h234.619c0.381,0.006,0.758,0.029,1.141,0.029s0.76-0.023,1.141-0.029
	h4.105c0,0,0.229-0.076,0.654-0.23C362.671,141.819,392.066,110.562,392.066,72.418z"/>
<path fill="#FFFFFF" d="M73.646,99.556c0,0-1.25,5.5-6.125,5.5c-5.375,0-6.125-5.5-6.125-5.5v-52.25c0,0,0.875-5.125,6.125-5.125
	c4.5,0,6.125,5.125,6.125,5.125V99.556z"/>
<path fill="#FFFFFF" d="M77.771,66.931l20.5-22.875c0,0,4.375-2.875,8.375,0s1.375,7.75,1.375,7.75l-13.5,15.125
	c0,0,10.625,8.375,12.375,12.75s1.941,6.875,1.971,11.75c0.03,4.875,0,8,0,8s-0.471,5.5-5.596,5.625s-6.75-4.375-6.75-4.375
	s-0.858-5.478-1.125-11.75c-0.25-5.875-4.75-9.5-8.125-10.75s-6.436,1.987-10.125-2.875C74.396,71.681,77.771,66.931,77.771,66.931z
	"/>
<path fill="#FFFFFF" d="M149.396,81.306l21.75-23.5c0,0,1.25-1.75,0.625-3.375s-9.875-14.75-28-13s-26.25,15.75-28.125,22.75
	s-3.839,23.45,14,36.125c8.176,5.81,19.908,6.115,28.625,2.625c6.476-2.593,10.451-7.58,14.5-12.375
	c4.25-5.033,3.375-7.625,1.875-9.75s-4.25-3.25-6.5-2.625s-4.125,4.125-5.5,5.5s-7.275,9.93-16.875,8.5
	c-11.75-1.75-20.875-10.625-18.125-21.875s9.25-14.125,12.375-15.5s7.25-1.375,9.125-1.125s7.375,2.5,7.375,2.5l-15.5,16
	c0,0-2.375,4.75,0.5,8.25S149.396,81.306,149.396,81.306z"/>
<path fill="#FFFFFF" d="M191.98,53.889v46.333c0,0,2.167,5.108,6.667,4.971c4.5-0.137,5.833-5.304,5.833-5.304v-46h12.167
	c0,0,5.001-1.167,4.834-6.5s-5.334-6.119-5.334-6.119h-34.333c0,0-4.863,0.452-5.932,5.952c-1.069,5.5,4.765,6.667,4.765,6.667
	H191.98z"/>
<path fill="#FFFFFF" d="M255.063,81.692l21.75-23.5c0,0,1.25-1.75,0.625-3.375s-9.875-14.75-28-13s-26.25,15.75-28.125,22.75
	s-3.84,23.45,14,36.125c8.176,5.81,19.908,6.115,28.625,2.625c6.476-2.593,10.451-7.58,14.5-12.375
	c4.25-5.033,3.375-7.625,1.875-9.75s-4.25-3.25-6.5-2.625s-4.125,4.125-5.5,5.5s-7.275,9.93-16.875,8.5
	c-11.75-1.75-20.875-10.625-18.125-21.875s9.25-14.125,12.375-15.5s7.25-1.375,9.125-1.125s7.375,2.5,7.375,2.5l-15.5,16
	c0,0-2.375,4.75,0.5,8.25S255.063,81.692,255.063,81.692z"/>
<path fill="#FFFFFF" d="M287.396,47.556v52.25c0,0,1,5.125,6,5s6.5-5.5,6.5-5.5V53.681l15.25-0.125c0,0,5,1.25,5.5,4.875
	s-4,6.875-6.375,7.625s-5.375,3.494-5.375,7.069c0,5.806,6.5,4.806,9.375,7.181s5.25,6.125,5.625,10s0,9.375,0,9.375
	s1.75,5.38,6,5.127s6.25-5.002,6.25-5.002s0.75-14.25-0.625-17s-7.375-11.25-7.375-11.25s7.25-5.25,5.125-16.25
	s-14.875-13.648-14.875-13.648h-25.5c0,0-1.75,0.523-3.375,1.523S287.396,47.556,287.396,47.556z"/>
</svg>
