<?xml version="1.0" encoding="UTF-8"?>
<!DOCTYPE svg PUBLIC "-//W3C//DTD SVG 1.1//EN" "http://www.w3.org/Graphics/SVG/1.1/DTD/svg11.dtd">
<!-- Creator: CorelDRAW X7 -->
<svg xmlns="http://www.w3.org/2000/svg" xml:space="preserve" width="134.585mm" height="21.343mm" version="1.1" style="shape-rendering:geometricPrecision; text-rendering:geometricPrecision; image-rendering:optimizeQuality; fill-rule:evenodd; clip-rule:evenodd"
viewBox="0 0 13459 2134"
 xmlns:xlink="http://www.w3.org/1999/xlink">
 <defs>
  <style type="text/css">
   <![CDATA[
    .fil0 {fill:#E31E24}
   ]]>
  </style>
 </defs>
 <g id="Слой_x0020_1">
  <metadata id="CorelCorpID_0Corel-Layer"/>
  <path class="fil0" d="M11526 1908c-150,-39 -295,-96 -407,-210 -64,-66 -107,-144 -112,-239 -3,-49 14,-88 45,-123 43,-48 88,-49 128,2 164,216 396,242 641,231 67,-3 127,-35 175,-83 53,-50 83,-110 67,-185 -18,-81 -79,-116 -151,-132 -56,-11 -114,-13 -172,-16 -68,-4 -109,-29 -131,-87 -22,-61 -8,-119 39,-163 47,-42 100,-57 164,-57 81,0 164,-3 244,-16 86,-15 131,-67 135,-136 4,-81 -44,-157 -124,-182 -135,-42 -267,-28 -382,54 -80,56 -147,128 -219,195 -49,46 -94,96 -172,93 -88,-4 -149,-50 -160,-137 -20,-150 17,-289 117,-404 58,-67 133,-94 226,-70 35,9 78,4 113,-7 200,-64 404,-97 613,-76 141,14 274,53 389,141 125,97 209,276 135,436 -32,71 -79,110 -175,179 -23,20 -89,58 -83,61 -8,28 46,40 73,50 286,124 247,540 46,698 -154,119 -310,168 -497,202 -172,30 -353,20 -565,-19z"/>
  <path class="fil0" d="M4553 1866c-344,-123 -560,-500 -502,-859 57,-348 268,-578 568,-739 131,-71 273,-109 423,-120 164,-13 310,40 456,101 33,14 76,14 112,8 79,-14 128,0 175,68 65,95 75,202 69,313 -5,89 -30,167 -96,230 -67,62 -146,74 -229,49 -27,-8 -52,-37 -68,-63 -45,-67 -81,-139 -125,-206 -88,-132 -219,-169 -367,-149 -125,16 -230,125 -253,276 -26,168 -14,336 74,488 81,141 206,215 371,221 147,5 280,-30 395,-124 32,-25 66,-60 112,-37 49,25 54,74 56,121 4,115 -106,246 -222,321 -299,188 -729,192 -949,101z"/>
  <path class="fil0" d="M10165 1903c-37,-5 -75,-18 -107,-37 -58,-36 -67,-110 -11,-146 153,-98 156,-251 170,-404 4,-50 3,-89 -3,-127 -2,-19 -15,-44 -29,-50 -15,-7 -36,-12 -57,13 -52,60 -92,131 -131,198 -79,135 -152,273 -228,409 -12,22 -28,43 -45,62 -41,50 -91,48 -116,-11 -52,-125 -98,-252 -145,-378 -33,-90 -62,-183 -98,-272 -9,-23 -33,-63 -59,-60 -25,5 -43,41 -46,62 -20,146 -36,293 -48,440 -3,43 24,77 65,99 84,46 82,121 0,170 -46,28 -107,41 -161,43 -108,5 -204,-4 -312,-11 -24,-1 -62,-11 -88,-28 -65,-42 -59,-129 12,-158 89,-34 127,-96 144,-185 56,-291 108,-582 127,-878 1,-24 0,-48 0,-72 -1,-60 -16,-112 -76,-140 -6,-2 -11,-7 -16,-10 -101,-74 -93,-178 25,-222 178,-68 364,-72 551,-38 43,8 75,34 93,77 64,155 128,311 195,466 23,51 49,102 82,147 36,51 70,52 109,4 44,-53 81,-112 117,-170 79,-125 158,-250 233,-378 56,-95 138,-150 245,-155 109,-5 219,-2 326,10 47,6 98,32 132,70 42,39 56,101 -6,139 -154,114 -152,218 -176,352 -48,262 -51,527 -68,792 -4,51 10,95 51,129 13,10 23,22 34,34 66,66 56,149 -32,179 -85,30 -177,46 -268,53 -80,6 -297,-5 -385,-18z"/>
  <path class="fil0" d="M1132 991c101,-2 172,-37 217,-118 51,-89 62,-185 34,-283 -34,-120 -111,-170 -234,-156 -43,4 -67,23 -72,68 -13,139 -29,278 -45,416 -4,35 11,56 44,64 22,5 44,7 56,9zm200 -824c121,-7 238,9 349,58 223,99 326,300 273,540 -55,246 -217,389 -449,464 -137,44 -276,39 -416,28 -87,-7 -90,-4 -99,81 -7,64 -9,128 -11,192 -2,58 21,102 73,132 40,23 84,48 77,105 -7,61 -51,94 -104,108 -79,19 -160,36 -241,43 -154,13 -309,14 -460,-30 -12,-4 -24,-8 -36,-14 -44,-21 -82,-49 -85,-102 -2,-50 33,-79 75,-96 95,-39 129,-111 138,-211 26,-298 60,-595 90,-892 9,-80 -10,-112 -81,-146 -22,-11 -44,-19 -66,-30 -32,-17 -52,-41 -52,-80 1,-41 16,-76 52,-90 40,-16 83,-27 125,-30 74,-4 148,-1 222,-1 0,4 418,-17 626,-29z"/>
  <path class="fil0" d="M7596 1658c-578,225 -1159,118 -1299,-240 -139,-357 216,-830 793,-1056 578,-225 1159,-118 1299,240 140,358 -215,831 -793,1056zm1170 -719c-30,-492 -698,-852 -1492,-804 -794,48 -1414,486 -1384,978 29,492 697,852 1492,804 794,-48 1413,-486 1384,-978z"/>
  <path class="fil0" d="M7758 1020c0,369 -195,668 -436,668 -241,0 -437,-299 -437,-668 0,-369 196,-668 437,-668 241,0 436,299 436,668z"/>
  <path class="fil0" d="M13058 371l27 0c30,0 49,-17 49,-41 0,-27 -19,-40 -48,-40 -15,0 -24,1 -28,3l0 78zm-45 -109c17,-4 42,-6 68,-6 36,0 60,6 76,20 14,11 22,29 22,50 0,32 -22,53 -45,61l0 2c18,6 28,23 34,47 8,31 15,59 20,69l-47 0c-3,-7 -10,-27 -16,-58 -7,-32 -19,-43 -44,-43l-23 0 0 101 -45 0 0 -243z"/>
  <path class="fil0" d="M13100 202c-98,0 -179,80 -179,179 0,98 81,179 179,179 99,0 179,-81 179,-179 0,-99 -80,-179 -179,-179zm0 382c-112,0 -203,-91 -203,-203 0,-112 91,-203 203,-203 112,0 203,91 203,203 0,112 -91,203 -203,203z"/>
  <path class="fil0" d="M3232 1453c0,0 -48,134 -256,128 -208,-7 -289,-484 -289,-484 0,0 -107,-490 162,-584 0,0 228,-108 369,309 141,416 14,631 14,631zm611 -846c-212,-439 -774,-577 -1261,-342 -487,235 -711,781 -499,1220 211,438 778,604 1265,369 487,-235 706,-808 495,-1247z"/>
 </g>
</svg>
