<?xml version="1.0" encoding="utf-8"?>
<!-- Generator: Adobe Illustrator 15.0.0, SVG Export Plug-In . SVG Version: 6.00 Build 0)  -->
<!DOCTYPE svg PUBLIC "-//W3C//DTD SVG 1.1//EN" "http://www.w3.org/Graphics/SVG/1.1/DTD/svg11.dtd">
<svg version="1.1" id="Слой_1" xmlns="http://www.w3.org/2000/svg" xmlns:xlink="http://www.w3.org/1999/xlink" x="0px" y="0px"
	 width="45.625px" height="21.125px" viewBox="-1.375 -1.25 45.625 21.125" enable-background="new -1.375 -1.25 45.625 21.125"
	 xml:space="preserve">
<path fill="#FFFFFF" d="M40.561,3.132h-6.609c-0.053,0-0.099,0.01-0.15,0.012v-0.01h-9.768c-0.398,0-0.769,0.071-1.106,0.19
	c-0.294-0.123-0.628-0.192-1-0.192h-2.304l-3.296-3.495l-5.691,2.667l0.223,1.001c-0.009,0.015-0.02,0.032-0.032,0.053
	c-0.308-0.15-0.647-0.226-0.984-0.226H6.91c-0.446,0-0.875,0.124-1.248,0.353C5.303,3.247,4.885,3.124,4.478,3.124l-0.45,0.009
	H1.806c-1.045,0-1.629,0.542-1.884,0.866C-0.409,4.418-0.573,4.95-0.544,5.476V13.5c0,1.819,1.308,2.48,2.188,2.48l0.52-0.01h2.5
	c0.388,0,0.98,0,1.535-0.325c0.404,0.24,0.843,0.327,1.163,0.327h0.03l3.577,3.407l5.57-2.534l-0.474-2.186h0.414
	c0.064,0.443-0.036,0.838-0.159,1.049c0.113-0.19,0.39-0.646,0.638-1.049h0.231c0.514,1.266,1.892,1.311,2.081,1.311h2.697
	c0.37,0,0.738-0.098,1.07-0.273c0.428,0.175,0.908,0.273,1.433,0.273h6.336c0.552,0,1.053-0.155,1.487-0.411
	c0.449,0.256,0.966,0.411,1.542,0.411h6.727c1.703,0,2.939-1.335,2.939-3.174V6.188C43.5,4.474,42.209,3.132,40.561,3.132z"/>
<path fill="#6FA623" d="M40.561,5.132c-0.469,0-5.709,0-6.609,0c-0.898,0-1.23,0.353-1.23,1.095s0,5.69,0,6.433
	c0,0.742,0.391,1.311,1.113,1.311c0.725,0,6.043,0,6.727,0c0.685,0,0.939-0.568,0.939-1.174c0-0.607,0-5.924,0-6.609
	C41.5,5.504,41.029,5.132,40.561,5.132L40.561,5.132z M38.352,10.607c0,0.313-0.02,0.313-0.216,0.313s-1.721,0-1.975,0
	c-0.255,0-0.255-0.02-0.255-0.273s0-2.072,0-2.268c0-0.196,0.019-0.196,0.313-0.196c0.293,0,1.702,0,1.917,0
	c0.216,0,0.216,0.019,0.216,0.196C38.352,8.554,38.352,10.294,38.352,10.607L38.352,10.607z"/>
<path fill="#6FA623" d="M23.061,5.994c0,0.585,0,5.453,0,6.627c0,1.173,0.9,1.35,1.408,1.35c0.51,0,5.729,0,6.336,0
	c0.605,0,0.997-0.488,0.997-1.193s0-2.795,0-3.342c0-0.547-0.255-0.411-0.255-0.411s-3.343,0-3.675,0
	c-0.333,0-0.293,0.177-0.293,0.177s0,0.253,0,0.585s0.136,0.332,0.136,0.332s0.215,0,0.587,0c0.371,0,0.332,0.138,0.332,0.138
	s0,0.061,0,0.333c0,0.274-0.02,0.332-0.157,0.332c-0.136,0-1.447,0-1.836,0c-0.392,0-0.412-0.155-0.412-0.448s0-1.703,0-1.976
	c0-0.274,0-0.313,0.313-0.313s4.947,0,5.083,0c0.137,0,0.176,0,0.176-0.293s0-2.757,0-2.757s-7.177,0-7.762,0
	C23.452,5.132,23.061,5.406,23.061,5.994L23.061,5.994z"/>
<path fill="#6FA623" d="M21.927,5.132c-0.293,0-4.399,0-4.849,0c-0.45,0-0.508,0.234-0.508,0.234s-5.279,8.761-5.631,9.269
	c-0.351,0.508-0.528,0.391-0.528,0.391H9.296L11.369,17l4.341-1.975c0,0-0.684,0-0.938,0s-0.372,0-0.176-0.332
	c0.196-0.332,0.88-1.445,1.075-1.76c0.196-0.313,0.45-0.273,0.45-0.273s2.092,0,2.561,0c0.469,0,0.313,0.195,0.313,0.195
	s0,0.352,0,0.705c0,0.352,0,0.41,0.274,0.41c0.273,0,2.463,0,2.697,0c0.236,0,0.255-0.156,0.255-0.373c0-0.216,0-7.82,0-8.134
	C22.221,5.151,22.221,5.132,21.927,5.132L21.927,5.132z M18.994,10.432c0,0.43,0,0.488-0.254,0.488c-0.254,0-1.369,0-1.505,0
	c-0.136,0-0.333,0-0.137-0.293c0.195-0.294,1.291-2.092,1.505-2.443c0.215-0.353,0.391-0.274,0.391,0
	C18.994,8.456,18.994,10,18.994,10.432L18.994,10.432z"/>
<path fill="#6FA623" d="M10.606,13.639c0,0,5.514-9.054,5.67-9.309c0.157-0.253,0.254-0.215,0.411-0.215c0.157,0,1.114,0,1.114,0
	l-1.936-2.053l-4.38,2.053c0,0,0.548,0,0.88,0c0.332,0,0.235,0.176,0.235,0.176s-1.995,3.305-2.229,3.677
	c-0.234,0.371-0.293,0.215-0.293,0.058c0-0.156,0-2.326,0-2.502c0-0.176,0-0.391-0.235-0.391c-0.234,0-2.717,0-2.933,0
	c-0.215,0-0.313,0.157-0.332,0.176s-1.33,2.249-1.604,2.679c-0.273,0.43-0.313,0-0.313,0s0-2.053,0-2.502
	c0-0.451-0.235-0.353-0.235-0.353s-2.209,0-2.62,0c-0.411,0-0.35,0.254-0.35,0.254s0,7.529,0,8.113c0,0.588,0.234,0.471,0.234,0.471
	s2.425,0,2.973,0c0.547,0,0.547,0,0.684-0.293c0.137-0.295,1.173-2.016,1.388-2.406c0.215-0.39,0.392-0.352,0.392-0.039
	c0,0.313,0,2.054,0,2.31c0,0.254,0,0.431,0.234,0.431c0.235,0,2.327,0,2.718,0C10.469,13.971,10.606,13.639,10.606,13.639
	L10.606,13.639z"/>
</svg>
