<?xml version="1.0" encoding="utf-8"?>
<!-- Generator: Adobe Illustrator 23.0.1, SVG Export Plug-In . SVG Version: 6.00 Build 0)  -->
<svg version="1.1" id="Layer_1" xmlns="http://www.w3.org/2000/svg" xmlns:xlink="http://www.w3.org/1999/xlink" x="0px" y="0px"
	 viewBox="0 0 59.2 58.2" style="enable-background:new 0 0 59.2 58.2;" xml:space="preserve">
<style type="text/css">
	.st0{fill:#231F20;}
	.st1{fill:none;stroke:#231F20;stroke-linecap:round;stroke-linejoin:round;stroke-miterlimit:10;}
</style>
<g>
	<path class="st0" d="M36.4,34.1c0,0.4-0.2,0.9-0.5,1.1L32.3,38c-0.3,0.2-0.4,0.1-0.3-0.2l1.8-6.2c0.1-0.4-0.1-0.7-0.5-0.8l-3.8-1
		c-0.4-0.1-0.6-0.5-0.5-0.8l1.2-4.7c0.1-0.4,0.5-0.7,0.8-0.7h4.5c0.4,0,0.7,0.3,0.7,0.7V34.1z M22.8,24.2c0-0.4,0.3-0.7,0.7-0.7h3.7
		c0.4,0,0.6,0.3,0.5,0.7l-1.4,5.2c-0.1,0.4-0.3,0.9-0.3,1.3c-0.1,0.3,0.1,0.7,0.5,0.8l3.7,1c0.4,0.1,0.6,0.5,0.5,0.8L29,38.8
		c-0.1,0.4-0.4,0.5-0.7,0.2l-4.9-3.8c-0.3-0.2-0.5-0.7-0.5-1.1V24.2z M38.3,20.9H37H20.9c-0.4,0-0.7,0.3-0.7,0.7v13.9
		c0,0.4,0.2,0.9,0.5,1.1l8.3,6.5c0.3,0.2,0.8,0.2,1.1,0l8.3-6.5c0.3-0.2,0.5-0.7,0.5-1.1V21.6C39,21.2,38.7,20.9,38.3,20.9"/>
	<path class="st0" d="M36.9,15c-0.4,0-0.7,0.3-0.7,0.8v0.4c0,0.4-0.3,0.8-0.7,0.8h-3.2c-0.4,0-0.7-0.3-0.7-0.8v-0.4
		c0-0.4-0.3-0.8-0.7-0.8h-2.6c-0.4,0-0.7,0.3-0.7,0.8v0.4c0,0.4-0.3,0.8-0.7,0.8h-3.1c-0.4,0-0.7-0.3-0.7-0.8v-0.4
		c0-0.4-0.3-0.8-0.7-0.8h-1.6c-0.4,0-0.7,0.3-0.7,0.8v3.2c0,0.4,0.3,0.8,0.7,0.8h17.4c0.4,0,0.7-0.3,0.7-0.8v-3.2
		c0-0.4-0.3-0.8-0.7-0.8H36.9z"/>
</g>
<ellipse transform="matrix(0.9951 -9.853770e-02 9.853770e-02 0.9951 -2.7234 3.0583)" class="st1" cx="29.6" cy="29.1" rx="23.7" ry="23.7"/>
</svg>
