<?xml version="1.0" encoding="utf-8"?>
<!-- Generator: Adobe Illustrator 23.0.1, SVG Export Plug-In . SVG Version: 6.00 Build 0)  -->
<svg version="1.1" id="Layer_1" xmlns="http://www.w3.org/2000/svg" xmlns:xlink="http://www.w3.org/1999/xlink" x="0px" y="0px"
	 viewBox="0 0 22.2 28.3" style="enable-background:new 0 0 22.2 28.3;" xml:space="preserve">
<style type="text/css">
	.st0{fill:url(#SVGID_1_);}
</style>
<linearGradient id="SVGID_1_" gradientUnits="userSpaceOnUse" x1="4.173773e-03" y1="6.0201" x2="27.0848" y2="28.2229">
	<stop  offset="8.040442e-03" style="stop-color:#434647"/>
	<stop  offset="0.1825" style="stop-color:#7D7C7D"/>
	<stop  offset="0.3894" style="stop-color:#E1E2E3"/>
	<stop  offset="0.5881" style="stop-color:#919395"/>
	<stop  offset="0.7751" style="stop-color:#5E5C5C"/>
	<stop  offset="0.9943" style="stop-color:#221F1F"/>
</linearGradient>
<path class="st0" d="M19.6,13.5c-1.3,0.1-1.3,1.3-1.3,1.3l0,2.7c0,0,0.2,2.5-0.6,2.4c-0.5,0-0.5-0.8-0.5-0.8L17.1,2.4
	c0,0-0.3-1.2-1.7-1.1C14.3,1.3,14,2.3,14,2.3l0,10c0,0,0,0.7-0.5,0.7c-0.5,0-0.5-0.7-0.5-0.7L12.8,1.5c0,0-0.2-1.4-1.6-1.4
	C9.8,0,9.6,1.3,9.6,1.3l0,10.9c0,0,0.1,0.9-0.6,0.8c-0.5-0.1-0.5-0.8-0.5-0.8L8.5,1.1c0,0-0.6-1.3-1.6-1.3c-1.1,0-1.5,1.3-1.5,1.3
	L5.3,14.7c0,0,0,0.3-0.4,0.4c-0.5,0.1-0.7-0.4-0.7-0.4l0-1L4.1,6.2c0,0-0.2-1.5-1.5-1.5C1.3,4.7,1,6.4,1,6.4s0.1,15.1,0.2,16.4
	c0.1,1.4,1.1,2.8,2.8,4.4c1.7,1.6,6.7,1.1,7.3,1.1c0.6,0,4.6-0.3,7.1-1.5c2.4-1.3,3.1-4,3.1-4v-8.3C21.4,14.5,20.8,13.4,19.6,13.5z
	 M9.7,25.3c-0.3,0.2-0.6,0.3-0.8,0.3c-0.2,0-0.3-0.1-0.4-0.2s-0.2-0.3-0.2-0.5c0-0.7,0.4-2.3,1.2-4.9c0-0.1,0.1-0.2,0.1-0.3
	c0-0.1,0-0.2-0.1-0.2c-0.1,0-0.2,0-0.4,0.1c-0.1,0.1-0.4,0.4-0.9,0.8l-0.4-0.3c0.5-0.6,1-1,1.5-1.3c0.4-0.3,0.8-0.4,1.1-0.4
	c0.2,0,0.3,0,0.4,0.1c0.1,0.1,0.1,0.2,0.1,0.3c0,0.2-0.2,0.8-0.5,2c-0.6,1.9-0.9,3.1-0.9,3.5c0,0.1,0,0.1,0.1,0.2
	c0,0.1,0.1,0.1,0.1,0.1c0.2,0,0.6-0.3,1.3-1l0.3,0.3C10.6,24.6,10.1,25.1,9.7,25.3z M11.6,16.3c-0.2,0.2-0.3,0.3-0.6,0.3
	c-0.2,0-0.3-0.1-0.4-0.2c-0.1-0.1-0.2-0.3-0.2-0.4c0-0.2,0.1-0.4,0.2-0.6c0.2-0.2,0.3-0.3,0.6-0.3c0.2,0,0.3,0.1,0.4,0.2
	c0.1,0.1,0.2,0.3,0.2,0.4C11.9,15.9,11.8,16.1,11.6,16.3z"/>
</svg>
