<?xml version="1.0" encoding="utf-8"?>
<!-- Generator: Adobe Illustrator 23.0.1, SVG Export Plug-In . SVG Version: 6.00 Build 0)  -->
<svg version="1.1" id="Layer_1" xmlns="http://www.w3.org/2000/svg" xmlns:xlink="http://www.w3.org/1999/xlink" x="0px" y="0px"
	 viewBox="0 0 170.8 233.6" style="enable-background:new 0 0 170.8 233.6;" xml:space="preserve">
<style type="text/css">
	.st0{fill:#FFFFFF;stroke:#000000;stroke-width:10;stroke-miterlimit:10;}
	.st1{stroke:#000000;stroke-miterlimit:10;}
	.st2{font-family:'MyriadPro-Regular';}
	.st3{font-size:27.0913px;}
</style>
<polygon class="st0" points="27.6,40 27.6,167 100.6,200 100.6,27 "/>
<rect x="105.6" y="21.7" class="st1" width="10" height="185.4"/>
<rect x="122.6" y="21.7" class="st1" width="10" height="185.4"/>
<rect x="139.7" y="21.7" class="st1" width="10" height="185.4"/>
<path d="M87.6,102.1c0.2-1.6,0.2-3.3,0.3-5l-4.9-2.9c-0.1-1.6-0.2-3.2-0.4-4.7l4.4-4.4c-0.3-1.7-0.6-3.3-1.1-4.9l-5.3,0.5
	c-0.4-1.3-0.9-2.5-1.4-3.7l2.9-7c-0.7-1.4-1.5-2.7-2.3-3.9l-4.8,4c-0.7-0.8-1.4-1.6-2.1-2.4l0.9-8.5c-1-0.8-2-1.5-3.1-2.2l-3.4,6.8
	c-0.8-0.3-1.6-0.6-2.4-0.8l-1.4-8.4c-0.6-0.1-1.1-0.1-1.7-0.1c-0.6,0-1.1,0-1.7,0.1L58.7,63c-0.8,0.2-1.6,0.5-2.4,0.8L52.9,57
	c-1.1,0.6-2.1,1.3-3.1,2.2l0.9,8.5c-0.7,0.7-1.4,1.5-2.1,2.4l-4.8-4c-0.8,1.2-1.6,2.5-2.3,3.9l2.9,7c-0.5,1.2-1,2.4-1.4,3.7
	l-5.3-0.5c-0.4,1.6-0.8,3.2-1.1,4.9l4.4,4.4c-0.2,1.5-0.3,3.1-0.4,4.7l-4.9,2.9c0,1.7,0.1,3.4,0.3,5l5.1,1.2
	c0.2,1.7,0.5,3.4,0.9,4.9l-3.7,5.7c0.5,1.5,1,2.9,1.5,4.3l4.8-2.1c0.7,1.5,1.4,2.9,2.3,4.2l-1.9,7.5c0.8,1,1.6,2,2.4,2.9l3.8-5
	c1,0.9,2.1,1.8,3.3,2.4l0.2,7.9c1,0.4,1.9,0.8,2.9,1l2.2-7.1c0.6,0.1,1.2,0.1,1.8,0.1s1.2-0.1,1.8-0.1l2.2,7.1c1-0.2,2-0.6,2.9-1
	l0.2-7.9c1.1-0.7,2.2-1.5,3.3-2.4l3.8,5c0.8-0.9,1.7-1.8,2.4-2.9l-1.9-7.5c0.8-1.3,1.6-2.7,2.3-4.2l4.8,2.1c0.6-1.4,1.1-2.8,1.5-4.3
	l-3.7-5.7c0.4-1.6,0.7-3.2,0.9-4.9L87.6,102.1z M60.9,110.9c-4.7,0-8.5-6.8-8.5-15.2c0-8.4,3.8-15.2,8.5-15.2
	c4.7,0,8.5,6.8,8.5,15.2C69.4,104.1,65.6,110.9,60.9,110.9z"/>
<text transform="matrix(0.2631 0 0 1 55.1495 104.8017)" class="st2 st3">КВТ</text>
</svg>
