<?xml version="1.0" encoding="utf-8"?>
<!-- Generator: Adobe Illustrator 23.0.1, SVG Export Plug-In . SVG Version: 6.00 Build 0)  -->
<svg version="1.1" id="Layer_1" xmlns="http://www.w3.org/2000/svg" xmlns:xlink="http://www.w3.org/1999/xlink" x="0px" y="0px"
	 viewBox="0 0 82 80.6" style="enable-background:new 0 0 82 80.6;" xml:space="preserve">
<style type="text/css">
	.st0{fill:#231F20;}
</style>
<path class="st0" d="M78.8,32.5L78.8,32.5l-7.1-1.8c-0.6-1.9-1.4-3.8-2.3-5.5l3.8-6.3c0.6-1.1,0.5-2.4-0.4-3.3l-7.2-7.3
	c-0.9-0.9-2.2-1-3.3-0.4L56,11.6c-0.8-0.4-1.6-0.8-2.4-1.2c-1-0.4-2-0.8-3.1-1.1l-1.8-7.2c-0.3-1.2-1.4-2.1-2.6-2.1H35.9
	c-1.2,0-2.3,0.8-2.6,2.1l-1.8,7.2c-1.9,0.6-3.7,1.4-5.5,2.3l-6.3-3.8c-1.1-0.6-2.4-0.5-3.3,0.4l-7.3,7.3c-0.9,0.9-1,2.2-0.4,3.3
	l3.8,6.3c-0.9,1.8-1.7,3.6-2.3,5.5l-7.1,1.8c-1.2,0.3-2,1.4-2,2.6v10.3c0,1.2,0.8,2.3,2,2.6l7.1,1.8c0.6,1.9,1.4,3.8,2.3,5.5
	l-3.8,6.3c-0.6,1.1-0.5,2.4,0.4,3.3l7.2,7.3c0.9,0.9,2.2,1.1,3.3,0.4L26,69c1.8,0.9,3.6,1.7,5.5,2.3l1.8,7.1
	c0.3,1.2,1.4,2.1,2.6,2.1h10.2c1.2,0,2.3-0.8,2.6-2.1l1.8-7.1c1.9-0.6,3.7-1.4,5.5-2.3l6.3,3.8c1.1,0.6,2.4,0.5,3.3-0.4l7.2-7.3
	c0.9-0.9,1-2.2,0.4-3.3l-3.8-6.3c0.9-1.8,1.7-3.6,2.3-5.5l7.1-1.8c1.2-0.3,2-1.4,2-2.6V35.1C80.8,33.9,80,32.8,78.8,32.5 M67,47
	c-0.6,2.5-1.6,4.9-2.9,7.1c-0.5,0.9-0.5,1.9,0,2.8l3.5,5.9l-4.3,4.3l-5.8-3.5c-0.9-0.5-1.9-0.5-2.8,0c-2.2,1.3-4.6,2.3-7.1,3
	c-1,0.2-1.7,1-1.9,2L44,75.1H38l-1.6-6.6c-0.2-1-1-1.7-1.9-2c-2.5-0.6-4.9-1.6-7.1-3c-0.8-0.5-1.9-0.5-2.8,0l-5.8,3.5l-4.3-4.3
	l3.5-5.8c0.5-0.9,0.5-1.9,0-2.8c-1.3-2.2-2.3-4.6-2.9-7.1c-0.2-1-1-1.7-2-2l-6.6-1.7v-6.1l6.6-1.7c1-0.2,1.7-1,2-2
	c0.6-2.5,1.6-4.9,2.9-7.1c0.5-0.9,0.5-1.9,0-2.8l-3.5-5.8l4.3-4.3l5.8,3.5c0.9,0.5,1.9,0.5,2.8,0c2.2-1.3,4.6-2.3,7.1-3
	c1-0.2,1.7-1,1.9-2L38,5.5H44l1.6,6.6c0.2,1,1,1.7,1.9,2c2.5,0.6,4.9,1.6,7.1,3c0.9,0.5,1.9,0.5,2.8,0l5.8-3.5l4.3,4.3L64,23.7
	c-0.5,0.9-0.5,1.9,0,2.8c1.3,2.2,2.3,4.6,2.9,7.1c0.2,1,1,1.7,2,2l6.6,1.7v6.1L68.9,45C68,45.3,67.2,46,67,47"/>
<path class="st0" d="M41,21.2c-10.4,0-18.9,8.6-18.9,19.1c0,10.5,8.5,19.1,18.9,19.1c10.4,0,18.9-8.6,18.9-19.1
	C59.9,29.8,51.4,21.2,41,21.2 M54.6,40.3C54.6,47.9,48.5,54,41,54c-7.5,0-13.6-6.1-13.6-13.7c0-7.6,6.1-13.7,13.6-13.7
	C48.5,26.6,54.6,32.8,54.6,40.3"/>
</svg>
