<?xml version="1.0" encoding="utf-8"?>
<!-- Generator: Adobe Illustrator 23.0.1, SVG Export Plug-In . SVG Version: 6.00 Build 0)  -->
<svg version="1.1" id="Layer_1" xmlns="http://www.w3.org/2000/svg" xmlns:xlink="http://www.w3.org/1999/xlink" x="0px" y="0px"
	 viewBox="0 0 82 80.6" style="enable-background:new 0 0 82 80.6;" xml:space="preserve">
<style type="text/css">
	.st0{fill:#231F20;}
</style>
<path class="st0" d="M78.3,31.3c-1.2-0.6-2.7-0.1-3.3,1.2L54.5,75.2C51.4,75,44.4,74.5,37,73.1c6-0.1,10.9-1.1,11.2-1.2
	c0.8-0.2,1.4-0.7,1.7-1.4l26.3-54.7c0.6-1.2,0.1-2.7-1.2-3.3c-1.2-0.6-2.7-0.1-3.3,1.2L46,67.3c-3.2,0.5-12.3,1.8-19.6-0.2
	c-0.5-0.1-1-0.3-1.5-0.4c12.6,0,16.4-1.4,17.4-2.2c0.3-0.2,0.6-0.6,0.7-0.9L70.6,3.9c0.5-1,0.2-2.2-0.6-2.9c-0.8-0.7-2.1-0.8-3-0.2
	c-0.1,0-6.2,3.9-19.8,6.2C36.6,8.7,29.1,8.1,29,8.1c-1-0.1-2,0.5-2.5,1.4L2.4,58.8c-0.3,0.5-0.3,1.1-0.2,1.6c-0.1,0.4-0.1,0.8,0,1.1
	c-0.2,0.9,0.1,1.9,0.9,2.6c0.4,0.3,9.5,7.3,22.7,11.4c13.1,4.1,29.4,4.7,30.1,4.7c0,0,0.1,0,0.1,0c1,0,1.8-0.6,2.3-1.4l21.2-44.3
	C80.1,33.4,79.5,31.9,78.3,31.3z M30.3,13.2c2.9,0.1,9.4,0.1,17.7-1.2c6.7-1.1,11.7-2.6,15.2-3.9L39,60.5c-1.4,0.4-5.5,1.2-16.1,1.1
	c-6.8-0.1-12.1-1.8-14.9-2.9L30.3,13.2z"/>
</svg>
