<?xml version="1.0" encoding="utf-8"?>
<!-- Generator: Adobe Illustrator 23.0.1, SVG Export Plug-In . SVG Version: 6.00 Build 0)  -->
<svg version="1.1" id="Layer_1" xmlns="http://www.w3.org/2000/svg" xmlns:xlink="http://www.w3.org/1999/xlink" x="0px" y="0px"
	 viewBox="0 0 73.6 71.4" style="enable-background:new 0 0 73.6 71.4;" xml:space="preserve">
<style type="text/css">
	.st0{fill:url(#SVGID_1_);}
</style>
<linearGradient id="SVGID_1_" gradientUnits="userSpaceOnUse" x1="11.3437" y1="9.2344" x2="68.2669" y2="63.624">
	<stop  offset="8.040442e-03" style="stop-color:#434648"/>
	<stop  offset="0.1658" style="stop-color:#767576"/>
	<stop  offset="0.1825" style="stop-color:#7C7B7D"/>
	<stop  offset="0.3894" style="stop-color:#E2E3E4"/>
	<stop  offset="0.5881" style="stop-color:#929497"/>
	<stop  offset="0.7751" style="stop-color:#5F5D5D"/>
	<stop  offset="0.9943" style="stop-color:#231F20"/>
</linearGradient>
<path class="st0" d="M69.5,27.3c-0.8-0.4-1.8-0.1-2.2,0.7L47.8,68.1c-3.7-0.2-16.4-1.3-25.1-4.1c-0.2,0-0.3-0.1-0.5-0.2
	c0.4,0.1,0.8,0.2,1.2,0.2c2.7,0.5,5.3,0.6,7.6,0.6c6.9,0,11.4-1.6,11.6-1.7c0.4-0.2,0.8-0.5,1-0.9l24-49.1c0.4-0.9,0.1-1.9-0.8-2.4
	c-0.9-0.4-1.9-0.1-2.4,0.8L40.7,59.9c-2,0.6-8.3,2.1-16.7,0.7c-2.4-0.4-5-1.2-7.5-2.2c1.3,0.1,2.7,0.2,4.3,0.2
	c11,0.3,14.7-3.4,15-3.8c0.1-0.1,0.2-0.3,0.3-0.4l25-51.9c0.3-0.7,0.2-1.4-0.3-2c-0.5-0.5-1.3-0.7-2-0.4C58,0.5,56.7,1,55.2,1.6
	c-3.8,1.3-9.8,3.2-13.8,3.7c-6.5,0.9-16.9,1.1-17,1.1c-0.6,0-1.2,0.4-1.4,0.9L0.2,52.9c-0.3,0.7-0.2,1.5,0.4,2
	c0.4,0.4,10.3,8.8,21.1,12.3c10.7,3.4,26.3,4.3,27,4.3c0,0,0.1,0,0.1,0c0.6,0,1.2-0.4,1.5-0.9l20-41C70.6,28.7,70.3,27.7,69.5,27.3z
	"/>
</svg>
