<?xml version="1.0" encoding="utf-8"?>
<!-- Generator: Adobe Illustrator 23.0.1, SVG Export Plug-In . SVG Version: 6.00 Build 0)  -->
<svg version="1.1" id="Layer_1" xmlns="http://www.w3.org/2000/svg" xmlns:xlink="http://www.w3.org/1999/xlink" x="0px" y="0px"
	 viewBox="0 0 31.4 28.3" style="enable-background:new 0 0 31.4 28.3;" xml:space="preserve">
<style type="text/css">
	.st0{fill:#231F20;}
</style>
<path class="st0" d="M16.8,16.3c2.3,0,4.3-0.7,5.9-2.1c1.6-1.4,2.4-3.3,2.4-5.9s-0.8-4.5-2.4-5.9c-1.6-1.4-3.6-2-5.9-2H9.6v13.7H6.2
	v2.2h3.4V20H6.2v2.2h3.4V28h2.6v-5.8h7.9V20h-7.9v-3.6H16.8z M12.2,2.7h4.1c1.9,0,3.4,0.5,4.4,1.5c1.1,1,1.6,2.4,1.6,4.2
	c0,1.6-0.3,2.8-1,3.6c-0.6,0.8-1.4,1.3-2.2,1.6C18.6,13.9,18,14,17.5,14c-0.5,0-0.9,0.1-1.2,0.1h-4.1V2.7z"/>
</svg>
