<?xml version="1.0" encoding="utf-8"?>
<!-- Generator: Adobe Illustrator 23.0.1, SVG Export Plug-In . SVG Version: 6.00 Build 0)  -->
<svg version="1.1" id="Layer_1" xmlns="http://www.w3.org/2000/svg" xmlns:xlink="http://www.w3.org/1999/xlink" x="0px" y="0px"
	 viewBox="0 0 59.2 58.2" style="enable-background:new 0 0 59.2 58.2;" xml:space="preserve">
<style type="text/css">
	.st0{stroke:#808285;stroke-width:0.173;stroke-linecap:round;stroke-linejoin:round;stroke-miterlimit:10;}
</style>
<g>
	<path d="M39.7,46.9c0,0.2-0.1,0.3-0.3,0.3H13.6c-0.2,0-0.3-0.1-0.3-0.3V11.3c0-0.2,0.1-0.3,0.3-0.3h21.7v3.1c0,0.8,0.6,1.4,1.4,1.4
		h3v10.3h1.1V14.7L36,9.9H13.6c-0.8,0-1.4,0.6-1.4,1.4v35.6c0,0.8,0.6,1.4,1.4,1.4h25.8c0.8,0,1.4-0.6,1.4-1.4v-2.1h-1.1V46.9z
		 M36.3,14.1v-2.3l2.6,2.6h-2.3C36.5,14.4,36.3,14.2,36.3,14.1"/>
	<path class="st0" d="M39.7,46.9c0,0.2-0.1,0.3-0.3,0.3H13.6c-0.2,0-0.3-0.1-0.3-0.3V11.3c0-0.2,0.1-0.3,0.3-0.3h21.7v3.1
		c0,0.8,0.6,1.4,1.4,1.4h3v10.3h1.1V14.7L36,9.9H13.6c-0.8,0-1.4,0.6-1.4,1.4v35.6c0,0.8,0.6,1.4,1.4,1.4h25.8
		c0.8,0,1.4-0.6,1.4-1.4v-2.1h-1.1V46.9z M36.3,14.1v-2.3l2.6,2.6h-2.3C36.5,14.4,36.3,14.2,36.3,14.1z"/>
	<path d="M29.5,17.2c0-0.3-0.2-0.5-0.5-0.5H17.8c-0.3,0-0.5,0.2-0.5,0.5c0,0.3,0.2,0.5,0.5,0.5h11.2C29.2,17.8,29.5,17.5,29.5,17.2"
		/>
	<path class="st0" d="M29.5,17.2c0-0.3-0.2-0.5-0.5-0.5H17.8c-0.3,0-0.5,0.2-0.5,0.5c0,0.3,0.2,0.5,0.5,0.5h11.2
		C29.2,17.8,29.5,17.5,29.5,17.2z"/>
	<path d="M22.1,22.3h-4.9v4.9h4.9V22.3z M21,26h-2.7v-2.7H21V26z"/>
	<path class="st0" d="M22.1,22.3h-4.9v4.9h4.9V22.3z M21,26h-2.7v-2.7H21V26z"/>
	<path d="M33.6,22.7h-8.2c-0.3,0-0.5,0.2-0.5,0.5c0,0.3,0.2,0.5,0.5,0.5h8.2c0.3,0,0.5-0.2,0.5-0.5C34.2,22.9,33.9,22.7,33.6,22.7"
		/>
	<path class="st0" d="M33.6,22.7h-8.2c-0.3,0-0.5,0.2-0.5,0.5c0,0.3,0.2,0.5,0.5,0.5h8.2c0.3,0,0.5-0.2,0.5-0.5
		C34.2,22.9,33.9,22.7,33.6,22.7z"/>
	<path d="M33.6,25.8h-8.2c-0.3,0-0.5,0.2-0.5,0.5c0,0.3,0.2,0.5,0.5,0.5h8.2c0.3,0,0.5-0.2,0.5-0.5C34.2,26,33.9,25.8,33.6,25.8"/>
	<path class="st0" d="M33.6,25.8h-8.2c-0.3,0-0.5,0.2-0.5,0.5c0,0.3,0.2,0.5,0.5,0.5h8.2c0.3,0,0.5-0.2,0.5-0.5
		C34.2,26,33.9,25.8,33.6,25.8z"/>
	<path d="M22.1,29.7h-4.9v4.9h4.9V29.7z M21,33.5h-2.7v-2.7H21V33.5z"/>
	<path class="st0" d="M22.1,29.7h-4.9v4.9h4.9V29.7z M21,33.5h-2.7v-2.7H21V33.5z"/>
	<path d="M33.6,30.2h-8.2c-0.3,0-0.5,0.2-0.5,0.5c0,0.3,0.2,0.5,0.5,0.5h8.2c0.3,0,0.5-0.2,0.5-0.5C34.2,30.4,33.9,30.2,33.6,30.2"
		/>
	<path class="st0" d="M33.6,30.2h-8.2c-0.3,0-0.5,0.2-0.5,0.5c0,0.3,0.2,0.5,0.5,0.5h8.2c0.3,0,0.5-0.2,0.5-0.5
		C34.2,30.4,33.9,30.2,33.6,30.2z"/>
	<path d="M33.6,33.3h-8.2c-0.3,0-0.5,0.2-0.5,0.5c0,0.3,0.2,0.5,0.5,0.5h8.2c0.3,0,0.5-0.2,0.5-0.5C34.2,33.5,33.9,33.3,33.6,33.3"
		/>
	<path class="st0" d="M33.6,33.3h-8.2c-0.3,0-0.5,0.2-0.5,0.5c0,0.3,0.2,0.5,0.5,0.5h8.2c0.3,0,0.5-0.2,0.5-0.5
		C34.2,33.5,33.9,33.3,33.6,33.3z"/>
	<path d="M17.2,42.1h4.9v-4.9h-4.9V42.1z M18.3,38.4H21v2.7h-2.7V38.4z"/>
	<path class="st0" d="M17.2,42.1h4.9v-4.9h-4.9V42.1z M18.3,38.4H21v2.7h-2.7V38.4z"/>
	<path d="M33.6,37.7h-8.2c-0.3,0-0.5,0.2-0.5,0.5c0,0.3,0.2,0.5,0.5,0.5h8.2c0.3,0,0.5-0.2,0.5-0.5C34.2,38,33.9,37.7,33.6,37.7"/>
	<path class="st0" d="M33.6,37.7h-8.2c-0.3,0-0.5,0.2-0.5,0.5c0,0.3,0.2,0.5,0.5,0.5h8.2c0.3,0,0.5-0.2,0.5-0.5
		C34.2,38,33.9,37.7,33.6,37.7z"/>
	<path d="M33.6,40.8h-8.2c-0.3,0-0.5,0.2-0.5,0.5c0,0.3,0.2,0.5,0.5,0.5h8.2c0.3,0,0.5-0.2,0.5-0.5C34.2,41.1,33.9,40.8,33.6,40.8"
		/>
	<path class="st0" d="M33.6,40.8h-8.2c-0.3,0-0.5,0.2-0.5,0.5c0,0.3,0.2,0.5,0.5,0.5h8.2c0.3,0,0.5-0.2,0.5-0.5
		C34.2,41.1,33.9,40.8,33.6,40.8z"/>
	<path d="M43,36.1c1.2,0,2.1-0.3,2.9-1c0.8-0.7,1.2-1.6,1.2-2.9c0-1.3-0.4-2.2-1.2-2.9c-0.8-0.7-1.8-1-2.9-1h-3.5V35h-1.7v1.1h1.7
		v1.8h-1.7v1.1h1.7v2.9h1.3v-2.9h3.9v-1.1h-3.9v-1.8H43z M40.7,29.3h2c0.9,0,1.7,0.3,2.2,0.8c0.5,0.5,0.8,1.2,0.8,2.1
		c0,0.8-0.2,1.4-0.5,1.8c-0.3,0.4-0.7,0.7-1.1,0.8c-0.3,0.1-0.6,0.2-0.8,0.2c-0.3,0-0.5,0-0.6,0h-2V29.3z"/>
	<path class="st0" d="M43,36.1c1.2,0,2.1-0.3,2.9-1c0.8-0.7,1.2-1.6,1.2-2.9c0-1.3-0.4-2.2-1.2-2.9c-0.8-0.7-1.8-1-2.9-1h-3.5V35
		h-1.7v1.1h1.7v1.8h-1.7v1.1h1.7v2.9h1.3v-2.9h3.9v-1.1h-3.9v-1.8H43z M40.7,29.3h2c0.9,0,1.7,0.3,2.2,0.8c0.5,0.5,0.8,1.2,0.8,2.1
		c0,0.8-0.2,1.4-0.5,1.8c-0.3,0.4-0.7,0.7-1.1,0.8c-0.3,0.1-0.6,0.2-0.8,0.2c-0.3,0-0.5,0-0.6,0h-2V29.3z"/>
</g>
</svg>
