<?xml version="1.0" encoding="utf-8"?>
<!-- Generator: Adobe Illustrator 23.0.1, SVG Export Plug-In . SVG Version: 6.00 Build 0)  -->
<svg version="1.1" id="Layer_1" xmlns="http://www.w3.org/2000/svg" xmlns:xlink="http://www.w3.org/1999/xlink" x="0px" y="0px"
	 viewBox="0 0 45.4 30.5" style="enable-background:new 0 0 45.4 30.5;" xml:space="preserve">
<style type="text/css">
	.st0{stroke:#000000;stroke-miterlimit:10;}
</style>
<path class="st0" d="M25.6,10.1c0,0.9-0.6,1.3-1.8,1.3h-1.2v0h-0.1V8.9H24C25.1,8.9,25.6,9.3,25.6,10.1z M43.1,18.3L22.7,29.5
	L2.3,18.3h6.9V1h27v17.3H43.1z M29.6,10c0-0.8-0.2-1.5-0.6-2.2c-0.4-0.7-1-1.1-1.7-1.4s-1.8-0.5-3.1-0.5h-5.5v5.4h-2.7V14h2.7v1.8
	h-2.7v1.7h2.7v1.3h4v-1.3h3.3v-1.7h-3.3v-1.7h2.2c1.4,0,2.6-0.4,3.4-1.1S29.6,11.3,29.6,10z"/>
</svg>
