<?xml version="1.0" encoding="utf-8"?>
<!-- Generator: Adobe Illustrator 23.0.1, SVG Export Plug-In . SVG Version: 6.00 Build 0)  -->
<svg version="1.1" id="Layer_1" xmlns="http://www.w3.org/2000/svg" xmlns:xlink="http://www.w3.org/1999/xlink" x="0px" y="0px"
	 viewBox="0 0 31.4 28.3" style="enable-background:new 0 0 31.4 28.3;" xml:space="preserve">
<style type="text/css">
	.st0{fill:#231F20;}
</style>
<path class="st0" d="M30.5,4.8c-0.2-0.2-0.5-0.4-0.8-0.4L5.9,3.3c0,0,0,0-0.1,0C5.7,2.8,5.4,2.4,5,2.1l-2.9-2C1.6-0.1,1,0,0.7,0.5
	C0.4,0.9,0.5,1.6,0.9,1.9l2.9,2c0,0,0,0,0,0L7.6,17c0.1,0.4,0.3,0.8,0.6,1.1l-1.4,2.7c-0.3,0.7-0.3,1.4,0.1,2.1
	c0.1,0.2,0.3,0.4,0.5,0.6C7.2,24,7,24.5,7,25.1c0,1.8,1.4,3.2,3.2,3.2c1.8,0,3.2-1.4,3.2-3.2c0-0.4-0.1-0.8-0.2-1.2h9.2
	c-0.1,0.4-0.2,0.8-0.2,1.2c0,1.8,1.4,3.2,3.2,3.2c1.8,0,3.2-1.4,3.2-3.2c0-0.5-0.1-1-0.3-1.4c0.2-0.2,0.3-0.5,0.3-0.8
	c0-0.6-0.5-1-1-1H8.7c0,0,0,0-0.1,0c0,0,0-0.1,0-0.1l1.3-2.5c0.3,0.1,0.5,0.1,0.8,0.1c0.1,0,0.3,0,0.4,0l14.3-1.7
	c1.8-0.2,3.3-1.6,3.7-3.4l1.7-8.6C30.7,5.3,30.7,5,30.5,4.8 M25.4,23.9c0.6,0,1.2,0.5,1.2,1.2c0,0.6-0.5,1.2-1.2,1.2
	c-0.6,0-1.2-0.5-1.2-1.2C24.2,24.4,24.7,23.9,25.4,23.9 M10.2,23.9c0.6,0,1.2,0.5,1.2,1.2c0,0.6-0.5,1.2-1.2,1.2
	c-0.6,0-1.2-0.5-1.2-1.2C9,24.4,9.5,23.9,10.2,23.9 M7.7,9.8L6.4,5.4l4.1,0.2l0.7,4.3H7.7z M10.8,17.3c-0.6,0.1-1.1-0.3-1.2-0.8
	l-1.3-4.6h3.2l0.9,5.2L10.8,17.3z M16.8,16.6l-2.4,0.3l-0.8-5h3.2V16.6z M16.8,9.8h-3.5l-0.7-4.2l4.2,0.2V9.8z M21.9,16l-3.1,0.4
	v-4.5h3.5L21.9,16z M22.4,9.8h-3.7V5.9l4,0.2L22.4,9.8z M27,13.8c-0.2,1-1,1.7-1.9,1.8L24,15.7l0.3-3.8h3.1L27,13.8z M27.8,9.8h-3.3
	l0.3-3.6l3.7,0.2L27.8,9.8z"/>
</svg>
