<?xml version="1.0" encoding="utf-8"?>
<!-- Generator: Adobe Illustrator 23.0.1, SVG Export Plug-In . SVG Version: 6.00 Build 0)  -->
<svg version="1.1" id="Layer_1" xmlns="http://www.w3.org/2000/svg" xmlns:xlink="http://www.w3.org/1999/xlink" x="0px" y="0px"
	 viewBox="0 0 38.3 28.3" style="enable-background:new 0 0 38.3 28.3;" xml:space="preserve">
<path d="M32.7,21.5H12.9l0.4,1.1l19-0.1v1.1h-2.3H14.7h-2.1L4.4,1H0v-1L5.2,0l2.1,6h31L32.7,21.5z M12.3,25.9c0,1.3,1.1,2.3,2.3,2.3
	c1.3,0,2.3-1.1,2.3-2.3c0-1.3-1.1-2.3-2.3-2.3C13.4,23.6,12.3,24.6,12.3,25.9z M27.6,25.9c0,1.3,1.1,2.3,2.3,2.3
	c1.3,0,2.3-1.1,2.3-2.3c0-1.3-1.1-2.3-2.3-2.3C28.6,23.6,27.6,24.6,27.6,25.9z"/>
</svg>
