<?xml version="1.0" encoding="utf-8"?>
<!-- Generator: Adobe Illustrator 23.0.1, SVG Export Plug-In . SVG Version: 6.00 Build 0)  -->
<svg version="1.1" id="Layer_1" xmlns="http://www.w3.org/2000/svg" xmlns:xlink="http://www.w3.org/1999/xlink" x="0px" y="0px"
	 viewBox="0 0 59.2 58.2" style="enable-background:new 0 0 59.2 58.2;" xml:space="preserve">
<g>
	<path d="M49.2,10.7H9.8C8.3,10.7,7,12,7,13.5v26.7C7,41.8,8.3,43,9.8,43h13.3l-0.5,4.3h-2.2c-0.4,0-0.7,0.3-0.7,0.7
		s0.3,0.7,0.7,0.7h18.3c0.4,0,0.7-0.3,0.7-0.7s-0.3-0.7-0.7-0.7h-2.2L35.9,43h13.3c1.5,0,2.8-1.2,2.8-2.8V13.5
		C52,12,50.7,10.7,49.2,10.7 M23.9,47.3l0.5-4.3h2.4l0.2,0.9c0.3,1.1,1.3,1.9,2.4,1.9c1.1,0,2.1-0.8,2.4-1.9l0.2-0.9h2.4l0.5,4.3
		H23.9z M28.2,43h2.5l-0.2,0.6c-0.1,0.5-0.6,0.9-1.1,0.9c-0.5,0-1-0.4-1.1-0.9L28.2,43z M50.6,40.2L50.6,40.2c0,0.8-0.7,1.5-1.5,1.5
		H9.8c-0.8,0-1.5-0.7-1.5-1.5V13.5c0-0.8,0.7-1.5,1.5-1.5h39.4c0.8,0,1.5,0.7,1.5,1.5V40.2z"/>
	<path d="M38.5,20.8c-0.1-0.2-0.3-0.2-0.5-0.3l-15.5-0.7c0,0,0,0,0,0c-0.1-0.3-0.3-0.6-0.5-0.7L20,17.9c-0.3-0.2-0.7-0.1-0.9,0.2
		c-0.2,0.3-0.1,0.7,0.2,0.9l1.9,1.3c0,0,0,0,0,0l2.4,8.4c0.1,0.3,0.2,0.5,0.4,0.7l-0.9,1.8c-0.2,0.4-0.2,0.9,0.1,1.3
		c0.1,0.1,0.2,0.3,0.3,0.4c-0.2,0.3-0.3,0.7-0.3,1c0,1.1,0.9,2.1,2.1,2.1c1.1,0,2.1-0.9,2.1-2.1c0-0.3,0-0.5-0.1-0.7h6
		c-0.1,0.2-0.1,0.5-0.1,0.7c0,1.1,0.9,2.1,2.1,2.1c1.1,0,2.1-0.9,2.1-2.1c0-0.3-0.1-0.6-0.2-0.9c0.1-0.1,0.2-0.3,0.2-0.5
		c0-0.4-0.3-0.7-0.7-0.7H24.3c0,0,0,0,0,0c0,0,0,0,0,0l0.8-1.6c0.2,0,0.3,0.1,0.5,0.1c0.1,0,0.2,0,0.2,0l9.2-1.1
		c1.2-0.1,2.2-1,2.4-2.2l1.1-5.5C38.6,21.2,38.6,21,38.5,20.8 M35.1,33.2c0.4,0,0.7,0.3,0.7,0.7c0,0.4-0.3,0.7-0.7,0.7
		c-0.4,0-0.7-0.3-0.7-0.7C34.4,33.5,34.7,33.2,35.1,33.2 M25.3,33.2c0.4,0,0.7,0.3,0.7,0.7c0,0.4-0.3,0.7-0.7,0.7
		c-0.4,0-0.7-0.3-0.7-0.7C24.5,33.5,24.9,33.2,25.3,33.2 M23.7,24.1l-0.8-2.9l2.6,0.1l0.5,2.8H23.7z M25.7,28.9
		c-0.4,0-0.7-0.2-0.8-0.5L24,25.4h2.1l0.6,3.4L25.7,28.9z M29.5,28.4L28,28.6l-0.5-3.2h2.1V28.4z M29.5,24.1h-2.3l-0.4-2.7l2.7,0.1
		V24.1z M32.9,28l-2,0.2v-2.9h2.3L32.9,28z M33.2,24.1h-2.4v-2.5l2.6,0.1L33.2,24.1z M36.2,26.6c-0.1,0.6-0.6,1.1-1.3,1.2l-0.7,0.1
		l0.2-2.5h2L36.2,26.6z M36.7,24.1h-2.1l0.2-2.3l2.4,0.1L36.7,24.1z"/>
</g>
</svg>
