<?xml version="1.0" encoding="utf-8"?>
<!-- Generator: Adobe Illustrator 23.0.1, SVG Export Plug-In . SVG Version: 6.00 Build 0)  -->
<svg version="1.1" id="Layer_1" xmlns="http://www.w3.org/2000/svg" xmlns:xlink="http://www.w3.org/1999/xlink" x="0px" y="0px"
	 viewBox="0 0 38.3 28.3" style="enable-background:new 0 0 38.3 28.3;" xml:space="preserve">
<style type="text/css">
	.st0{fill:url(#SVGID_1_);}
</style>
<linearGradient id="SVGID_1_" gradientUnits="userSpaceOnUse" x1="10.4366" y1="2.7635" x2="38.614" y2="28.7043">
	<stop  offset="8.040442e-03" style="stop-color:#434647"/>
	<stop  offset="0.1825" style="stop-color:#7D7C7D"/>
	<stop  offset="0.3894" style="stop-color:#E1E2E3"/>
	<stop  offset="0.5881" style="stop-color:#919395"/>
	<stop  offset="0.7751" style="stop-color:#5E5C5C"/>
	<stop  offset="0.9943" style="stop-color:#221F1F"/>
</linearGradient>
<path class="st0" d="M32.7,21.5H12.9l0.4,1.1l19-0.1v1.1H30H14.7h-2.1L4.4,1H0V0h5.2l2.1,6h31L32.7,21.5z M12.3,25.9
	c0,1.3,1.1,2.3,2.3,2.3c1.3,0,2.3-1.1,2.3-2.3c0-1.3-1.1-2.3-2.3-2.3S12.3,24.6,12.3,25.9z M27.6,25.9c0,1.3,1.1,2.3,2.3,2.3
	c1.3,0,2.3-1.1,2.3-2.3c0-1.3-1.1-2.3-2.3-2.3C28.6,23.6,27.6,24.6,27.6,25.9z"/>
</svg>
