<?xml version="1.0" encoding="utf-8"?>
<!-- Generator: Adobe Illustrator 23.0.1, SVG Export Plug-In . SVG Version: 6.00 Build 0)  -->
<svg version="1.1" id="Layer_1" xmlns="http://www.w3.org/2000/svg" xmlns:xlink="http://www.w3.org/1999/xlink" x="0px" y="0px"
	 viewBox="0 0 595.3 841.9" style="enable-background:new 0 0 595.3 841.9;" xml:space="preserve">
<style type="text/css">
	.st0{fill:none;stroke:#000000;stroke-width:16;stroke-miterlimit:10;}
	.st1{fill:none;}
	.st2{stroke:#110D0D;stroke-miterlimit:10;}
	.st3{stroke:#000000;stroke-width:10;stroke-miterlimit:10;}
	.st4{fill:none;stroke:#000000;stroke-width:12;stroke-miterlimit:10;}
	.st5{fill:#FFFFFF;stroke:#000000;stroke-width:10;stroke-miterlimit:10;}
	.st6{stroke:#000000;stroke-width:12;stroke-miterlimit:10;}
</style>
<polygon class="st0" points="25.9,524.5 25.9,298.7 303.3,217.2 321.9,222.1 321.9,251.9 377.5,272.1 500.9,243 513,247.9 
	513.5,278.5 567.8,297.1 567.8,524.5 "/>
<polygon points="306.9,528.6 306.9,218.9 320.6,223.8 320.6,252.8 373.8,272.2 378.7,528.6 "/>
<polygon class="st1" points="372.1,274.6 503.5,243.9 503.5,528.6 379.3,528.6 "/>
<polygon points="41.2,344.1 77.5,336.1 77.5,407 41.2,412.7 "/>
<polygon points="88,333.5 124.3,325.2 124.3,399.1 88,404.6 "/>
<polygon points="156.6,318.6 192.8,309.7 192.8,387.8 156.6,394.1 "/>
<polygon points="218.6,302.4 267.8,292.5 267.8,375.2 218.6,383.3 "/>
<polygon points="4.9,454.6 4.9,439.3 82.4,430.4 82.4,452.2 4.9,460.2 "/>
<rect x="82.4" y="430.4" width="59.7" height="22"/>
<polygon points="373.1,328.7 403.1,324.3 403.1,385.4 371.2,389.1 "/>
<polygon points="424.8,319.9 477.5,309.7 477.5,377.2 424.8,382 "/>
<polygon points="372.3,452.8 405,450.6 406.1,524.2 377.5,519.9 "/>
<polygon points="424.8,449.8 482.3,443.3 482.3,524.5 424.8,524.5 "/>
<rect x="79.9" y="450.5" class="st2" width="10.9" height="72"/>
<polygon class="st3" points="503.5,518.1 503.5,243.9 513,247.9 513.5,278.5 563.1,295.4 567.8,524.5 503.5,524.5 "/>
<rect x="437.8" y="149.5" width="13.1" height="376.9"/>
<rect x="200.8" y="152.6" width="13.1" height="376.9"/>
<polygon class="st4" points="207.3,156.5 243.2,137.1 251.3,156.5 273.5,143.5 270,186.3 248.3,203.1 241.2,184 207.3,204.6 "/>
<polygon class="st4" points="443.8,149.3 479.7,129.9 487.8,149.3 509.9,136.3 506.5,179.1 484.8,195.9 477.7,176.8 443.8,197.4 "/>
<rect x="325.5" y="150.7" class="st5" width="17.2" height="376.9"/>
<polygon class="st6" points="331.5,150.5 367.5,131.1 375.5,150.5 397.7,137.6 394.2,180.4 372.5,197.1 365.4,178 331.5,198.6 "/>
</svg>
