<?xml version="1.0" encoding="utf-8"?>
<!-- Generator: Adobe Illustrator 23.0.1, SVG Export Plug-In . SVG Version: 6.00 Build 0)  -->
<svg version="1.1" id="Layer_1" xmlns="http://www.w3.org/2000/svg" xmlns:xlink="http://www.w3.org/1999/xlink" x="0px" y="0px"
	 viewBox="0 0 106.7 229.8" style="enable-background:new 0 0 106.7 229.8;" xml:space="preserve">
<style type="text/css">
	.st0{fill:url(#SVGID_1_);}
	.st1{fill:#ED1B31;}
	.st2{fill:none;stroke:#000000;stroke-linecap:round;stroke-linejoin:round;stroke-miterlimit:10;}
</style>
<radialGradient id="SVGID_1_" cx="52.9393" cy="61.0163" r="56.266" gradientUnits="userSpaceOnUse">
	<stop  offset="0" style="stop-color:#FFFFFF;stop-opacity:0"/>
	<stop  offset="0.1695" style="stop-color:#FCDEDF;stop-opacity:0.1695"/>
	<stop  offset="0.5441" style="stop-color:#F68A8E;stop-opacity:0.5441"/>
	<stop  offset="1" style="stop-color:#ED1C24"/>
</radialGradient>
<path class="st0" d="M53.2,122c0,0-51.5-11-51.4-67c0-15.2,13.3-54.3,48.3-55c36-0.7,51.8,34.6,53.5,51.1
	C109.4,108,53.2,122,53.2,122z"/>
<path class="st1" d="M52.7,122l-10.2,20.3c4.6,7.2,16,7.6,21.1-0.2L52.7,122z"/>
<g>
	<path d="M49.7,122l6.4-0.5c0,0,0.1,0,0.1,0c3.8,2.2,7.4,4.7,10.7,7.5c3.3,2.8,6.5,6,8.9,9.7c2.4,3.7,4.2,8,3.9,12.6
		c-0.1,2.3-0.8,4.5-1.8,6.5c-0.9,2-1.9,3.9-3.1,5.8c-2.2,3.8-4.9,7.3-8.1,10.4c-1.6,1.5-3.3,3-5.3,4.1c-1.9,1.1-4.1,2-6.5,2.1
		c-1.2,0-2.4-0.2-3.5-0.7c-1.1-0.5-2.1-1.2-2.9-2.1c-0.4-0.5-0.8-0.9-1-1.4c-0.3-0.5-0.7-1-0.8-1.6c-0.5-1.1-0.8-2.3-0.8-3.5
		c-0.1-2.4,0.8-4.8,2.4-6.6c1.5-1.8,3.6-3.1,5.7-3.9c2.2-0.8,4.6-1,6.8-0.7c2.2,0.4,4.4,0.8,6.5,1.7c2.1,0.8,4.1,1.9,5.9,3.2
		c1.8,1.3,3.5,2.9,4.9,4.6c1.4,1.7,2.6,3.6,3.5,5.7c0.8,2.1,1.3,4.3,1.5,6.6c0.2,2.2,0,4.5-0.6,6.7c-0.5,2.2-1.5,4.3-2.6,6.2
		c-1.1,1.9-2.7,3.6-4.2,5.2c-0.8,0.7-1.7,1.5-2.5,2.2c-0.9,0.6-1.8,1.3-2.7,1.9c-3.6,2.4-7.4,4.6-11.1,6.9c-1.8,1.1-3.7,2.3-5.4,3.6
		c-1.8,1.3-3.5,2.6-5,4.1c-1.5,1.5-2.8,3.4-3,5.5c-0.1,1.1,0,2.1,0.4,3.1c0.4,1,1,1.9,1.6,2.8c0,0,0,0.1,0,0.1c0,0-0.1,0-0.1,0
		c-0.7-0.9-1.3-1.8-1.7-2.8c-0.4-1-0.6-2.1-0.5-3.2c0.2-2.2,1.5-4.1,3-5.7c1.5-1.6,3.2-3,4.9-4.3c1.8-1.3,3.6-2.5,5.4-3.7
		c3.7-2.3,7.4-4.6,11-7c0.9-0.6,1.8-1.3,2.6-1.9c0.9-0.7,1.6-1.4,2.5-2.1c1.5-1.6,3-3.2,4.1-5.1c1.1-1.9,2-3.9,2.5-6
		c0.5-2.1,0.7-4.3,0.5-6.4c-0.2-2.2-0.6-4.3-1.4-6.3c-0.9-2-2-3.8-3.4-5.5c-1.4-1.7-3-3.2-4.7-4.4c-1.8-1.3-3.7-2.3-5.7-3
		c-2-0.8-4.2-1.2-6.3-1.6c-2.1-0.3-4.3-0.1-6.4,0.7c-2,0.7-3.9,1.9-5.3,3.6c-1.4,1.6-2.2,3.8-2.1,5.9c0,2.2,1.1,4.2,2.4,5.9
		c1.4,1.6,3.5,2.6,5.7,2.5c2.2,0,4.2-0.9,6.1-2c1.9-1.1,3.6-2.5,5.2-3.9c3.1-3,5.8-6.5,8-10.2c1.1-1.9,2.1-3.8,3.1-5.7
		c0.9-2,1.6-4,1.8-6.2c0.3-4.4-1.3-8.6-3.7-12.2c-2.4-3.6-5.4-6.8-8.7-9.7c-3.3-2.8-6.8-5.4-10.5-7.6l0,0L49.7,122
		C49.7,122.1,49.7,122.1,49.7,122C49.7,122,49.7,122,49.7,122z"/>
</g>
<polyline class="st2" points="50.1,123.1 56.1,122.7 50.5,124.2 55.7,124.2 "/>
</svg>
