<?xml version="1.0" encoding="utf-8"?>
<!-- Generator: Adobe Illustrator 23.0.1, SVG Export Plug-In . SVG Version: 6.00 Build 0)  -->
<svg version="1.1" id="Layer_1" xmlns="http://www.w3.org/2000/svg" xmlns:xlink="http://www.w3.org/1999/xlink" x="0px" y="0px"
	 viewBox="0 0 63.3 86.6" style="enable-background:new 0 0 63.3 86.6;" xml:space="preserve">
<style type="text/css">
	.st0{fill:#FFFFFF;}
	.st1{fill:#82878B;}
	.st2{fill:#9C9FA3;}
	.st3{fill:#F5A800;}
	.st4{fill:#1D252C;}
</style>
<g>
	<path class="st0" d="M4.1,9.8c0-3.2,2.5-5.7,5.5-5.7h4.1c2.2,0,4.2,1.4,5.1,3.6c0,0,0.4,1.1,0.5,1.3h3.5c0.1-0.2,0.5-1.3,0.5-1.3
		c0.8-2.2,2.9-3.6,5.1-3.6H35c1.5,0,3,0.7,4.1,1.8c0.4,0.5,0.8,1.1,1.1,1.7c0,0,0.4,1.1,0.5,1.3h3.7c0.1-0.2,0.5-1.3,0.5-1.3
		c0.8-2.2,2.9-3.6,5.1-3.6h3.7c1.5,0,2.8,0.6,3.9,1.7c1.1,1.1,1.6,2.5,1.6,4.1v7.9c0.1,0.8-0.1,1.7-0.5,2.5c0,0-0.3,0.7-0.4,0.9
		c0.1,0.1,0.4,0.9,0.4,0.9c0.4,0.8,0.6,1.6,0.5,2.4v34.9c0.1,2.1-1.1,4.5-2.8,5.7l-21,16.3c-2.1,1.7-5.2,1.7-7.4,0L7,65
		c-1.7-1.3-2.8-3.6-2.8-5.7V24.4c0-0.8,0.2-1.6,0.6-2.3c0,0,0.3-0.7,0.4-0.9c-0.1-0.1-0.4-0.9-0.4-0.9c-0.4-0.8-0.6-1.7-0.6-2.5V9.8
		L4.1,9.8z"/>
	<path class="st1" d="M4.4,68.2l21,16.3c3.6,2.8,8.8,2.8,12.4,0l21-16.3c2.7-2.1,4.4-5.6,4.4-9V24.4c0-1.1-0.2-2.1-0.6-3.2l0-0.1
		l0-0.1c0.4-1.1,0.6-2.2,0.6-3.3V9.8C63.3,4.4,59,0,53.6,0h-3.7c-2.8,0-5.5,1.2-7.3,3.4l-0.2,0.2c0,0-0.3-0.4-0.3-0.4
		C40.4,1.2,37.8,0,35,0h-6.6c-2.7,0-5.4,1.2-7.2,3.3l-0.2,0.2l-0.2-0.2C19.1,1.2,16.5,0,13.7,0H9.6C4.3,0,0,4.4,0,9.8v7.9
		c0,1.1,0.2,2.2,0.6,3.3l0,0.1l0,0.1C0.2,22.3,0,23.3,0,24.4v34.9C0,62.6,1.8,66.2,4.4,68.2 M4.1,9.8c0-3.2,2.5-5.7,5.5-5.7h4.1
		c2.2,0,4.2,1.4,5.1,3.6c0,0,0.4,1.1,0.5,1.3h3.5c0.1-0.2,0.5-1.3,0.5-1.3c0.8-2.2,2.9-3.6,5.1-3.6H35c1.5,0,3,0.7,4.1,1.8
		c0.4,0.5,0.8,1.1,1.1,1.7c0,0,0.4,1.1,0.5,1.3h3.7c0.1-0.2,0.5-1.3,0.5-1.3c0.8-2.2,2.9-3.6,5.1-3.6h3.7c1.5,0,2.8,0.6,3.9,1.7
		c1.1,1.1,1.6,2.5,1.6,4.1v7.9c0.1,0.8-0.1,1.7-0.5,2.5c0,0-0.3,0.7-0.4,0.9c0.1,0.1,0.4,0.9,0.4,0.9c0.4,0.8,0.6,1.6,0.5,2.4v34.9
		c0.1,2.1-1.1,4.5-2.8,5.7l-21,16.3c-2.1,1.7-5.2,1.7-7.4,0L7,65c-1.7-1.3-2.8-3.6-2.8-5.7V24.4c0-0.8,0.2-1.6,0.6-2.3
		c0,0,0.3-0.7,0.4-0.9c-0.1-0.1-0.4-0.9-0.4-0.9c-0.4-0.8-0.6-1.7-0.6-2.5V9.8L4.1,9.8z"/>
	<path class="st2" d="M46.9,29.3H35.5c-0.9,0-1.9,0.7-2.1,1.7l-3.1,11.7c-0.2,0.9,0.3,1.9,1.2,2.1l9.5,2.6c0.9,0.2,1.4,1.2,1.1,2.1
		l-4.6,15.5c-0.3,0.9,0.1,1.2,0.9,0.6l8.9-7c0.7-0.6,1.3-1.8,1.3-2.8V31C48.6,30.1,47.9,29.3,46.9,29.3"/>
	<path class="st3" d="M32.8,52l-9.3-2.6c-0.9-0.2-1.4-1.2-1.2-2c0.2-0.9,0.6-2.3,0.9-3.3L26.7,31c0.2-0.9-0.3-1.7-1.2-1.7h-9.3
		c-0.9,0-1.7,0.8-1.7,1.7V56c0,0.9,0.6,2.2,1.3,2.8l12.3,9.6c0.7,0.6,1.6,0.3,1.8-0.6l4-13.6C34.2,53.2,33.7,52.3,32.8,52"/>
	<path class="st4" d="M53.5,22.7h-3.3H9.6c-0.9,0-1.7,0.8-1.7,1.7v34.9c0,0.9,0.6,2.2,1.3,2.8l20.9,16.3c0.7,0.6,1.9,0.6,2.7,0
		L53.8,62c0.7-0.6,1.3-1.8,1.3-2.8V24.4C55.1,23.4,54.4,22.7,53.5,22.7 M33.9,54.1l-4,13.6c-0.3,0.9-1.1,1.2-1.8,0.6l-12.3-9.6
		c-0.7-0.6-1.3-1.8-1.3-2.8V31c0-0.9,0.8-1.7,1.7-1.7h9.3c0.9,0,1.5,0.7,1.2,1.7l-3.5,13.2c-0.2,0.9-0.6,2.4-0.9,3.3
		c-0.2,0.9,0.3,1.8,1.2,2l9.3,2.6C33.7,52.3,34.2,53.2,33.9,54.1 M48.6,56c0,0.9-0.6,2.2-1.3,2.8l-8.9,7c-0.7,0.6-1.1,0.3-0.9-0.6
		l4.6-15.5c0.3-0.9-0.2-1.9-1.1-2.1l-9.5-2.6c-0.9-0.2-1.4-1.2-1.2-2.1L33.4,31c0.2-0.9,1.2-1.7,2.1-1.7h11.4c0.9,0,1.7,0.8,1.7,1.7
		V56L48.6,56z M53.4,7.9h-4.1c-0.9,0-1.7,0.9-1.7,1.9v1c0,1.1-0.8,1.9-1.7,1.9h-7.6c-0.9,0-1.7-0.9-1.7-1.9v-1
		c0-1.1-0.8-1.9-1.7-1.9h-6.6c-0.9,0-1.7,0.9-1.7,1.9v1c0,1.1-0.8,1.9-1.7,1.9h-7.8c-0.9,0-1.7-0.9-1.7-1.9v-1
		c0-1.1-0.8-1.9-1.7-1.9h-4c-0.9,0-1.7,0.9-1.7,1.9v7.9c0,1.1,0.8,1.9,1.7,1.9h43.8c0.9,0,1.7-0.9,1.7-1.9V9.8
		C55.2,8.8,54.4,7.9,53.4,7.9"/>
</g>
</svg>
